<svg xmlns="http://www.w3.org/2000/svg"  stroke="#4A5568"  stroke-width="5" enable-background="new 0 0 512 512" viewBox="0 0 512 512" id="order">
  <g>
    <g>
      <g>
        <g>
          <path fill="#4A5568" d="M312,60h-40.527c-9.131-12.136-23.65-20-39.973-20h-0.284C228.719,17.532,209.623,0,186.5,0
					s-42.219,17.532-44.716,40H141.5c-16.323,0-30.842,7.864-39.973,20H61c-22.056,0-40,17.944-40,40v370c0,22.056,17.944,40,40,40
					h251c22.056,0,40-17.944,40-40V100C352,77.944,334.056,60,312,60z M186.5,20c12.073,0,22.175,8.604,24.498,20h-48.996
					C164.325,28.604,174.427,20,186.5,20z M141.5,60c11.367,0,78.686,0,90,0c13.037,0,24.159,8.359,28.286,20H113.214
					C117.341,68.359,128.463,60,141.5,60z M332,470c0,11.028-8.972,20-20,20H61c-11.028,0-20-8.972-20-20V100
					c0-11.028,8.972-20,20-20h31.506c-0.659,3.232-1.006,6.576-1.006,10c0,5.522,4.478,10,10,10h170c5.522,0,10-4.478,10-10
					c0-3.424-0.347-6.768-1.006-10H312c11.028,0,20,8.972,20,20V470z"></path>
          <path fill="#4A5568" d="M111 220H71c-5.522 0-10 4.478-10 10v40c0 5.522 4.478 10 10 10h40c5.522 0 10-4.478 10-10v-40C121 224.478 116.522 220 111 220zM101 260H81v-20h20V260zM302 220H151c-5.522 0-10 4.478-10 10s4.478 10 10 10h151c5.522 0 10-4.478 10-10S307.522 220 302 220zM302 260H151c-5.522 0-10 4.478-10 10s4.478 10 10 10h151c5.522 0 10-4.478 10-10S307.522 260 302 260zM302 310H151c-5.522 0-10 4.478-10 10s4.478 10 10 10h151c5.522 0 10-4.478 10-10S307.522 310 302 310zM302 350H151c-5.522 0-10 4.478-10 10s4.478 10 10 10h151c5.522 0 10-4.478 10-10S307.522 350 302 350zM111 400H71c-5.522 0-10 4.478-10 10v40c0 5.522 4.478 10 10 10h40c5.522 0 10-4.478 10-10v-40C121 404.478 116.522 400 111 400zM101 440H81v-20h20V440zM302 400H151c-5.522 0-10 4.478-10 10s4.478 10 10 10h151c5.522 0 10-4.478 10-10S307.522 400 302 400zM302 440H151c-5.522 0-10 4.478-10 10s4.478 10 10 10h151c5.522 0 10-4.478 10-10S307.522 440 302 440z"></path>
          <path fill="#4A5568" d="M302 130H71c-5.522 0-10 4.478-10 10v40c0 5.522 4.478 10 10 10h231c5.522 0 10-4.478 10-10v-40C312 134.478 307.522 130 302 130zM292 170H81v-20h211V170zM111 310H71c-5.522 0-10 4.478-10 10v40c0 5.522 4.478 10 10 10h40c5.522 0 10-4.478 10-10v-40C121 314.478 116.522 310 111 310zM101 350H81v-20h20V350zM481 130h-30c0-8.864-3.867-16.84-10-22.337V90c0-16.542-13.458-30-30-30s-30 13.458-30 30v17.663c-6.133 5.497-10 13.472-10 22.337.009 313.073-.051 300.229.103 301.355.115.851.364 1.788.706 2.584 0 0 0 0 0 0l30 70C403.385 507.616 407 510 411 510s7.615-2.384 9.191-6.061l30-70c0 0 0 0 0 0 .518-1.206.809-2.687.809-3.939V150h20v130c0 5.522 4.478 10 10 10s10-4.478 10-10V140C491 134.478 486.522 130 481 130zM391 250h40v170h-40V250zM391 130c0-5.514 4.486-10 10-10h20c5.514 0 10 4.486 10 10v100h-40V130zM401 90c0-5.514 4.486-10 10-10s10 4.486 10 10v10h-20V90zM411 474.614L396.165 440h29.67L411 474.614z"></path>
        </g>
      </g>
    </g>
  </g>
</svg>