<svg xmlns="http://www.w3.org/2000/svg" fill="none" stroke="#4A5568" stroke-width="1.8" fill-rule="evenodd" stroke-linejoin="round" stroke-miterlimit="2" clip-rule="evenodd" viewBox="0 0 32 32" id="product">
  <path d="M76,108L52,108L52,121C52,121.796 52.316,122.559 52.879,123.121C53.441,123.684 54.204,124 55,124C59.184,124 68.816,124 73,124C73.796,124 74.559,123.684 75.121,123.121C75.684,122.559 76,121.796 76,121L76,108ZM61,112L67,112C67.552,112 68,111.552 68,111C68,110.448 67.552,110 67,110L61,110C60.448,110 60,110.448 60,111C60,111.552 60.448,112 61,112ZM52,106C52,106 76,106 76,106C77.105,106 78,105.105 78,104L78,102C78,100.895 77.105,100 76,100C71.866,100 56.134,100 52,100C50.895,100 50,100.895 50,102L50,104C50,105.105 50.895,106 52,106Z" transform="translate(-48 -96)"/>
</svg>
